/vscmnt/brussel_pixiu_data/_data_brussel/112/vsc11236/PredSimResults/SUBJ09opt3D/expIG/worker_15.mot
version=1
nRows=5
nColumns=50
inDegrees=yes
endheader
                time	         pelvis_tilt	         pelvis_list	     pelvis_rotation	           pelvis_tx	           pelvis_ty	           pelvis_tz	       hip_flexion_r	     hip_adduction_r	      hip_rotation_r	        knee_angle_r	       ankle_angle_r	         mtp_angle_r	       hip_flexion_l	     hip_adduction_l	      hip_rotation_l	        knee_angle_l	       ankle_angle_l	         mtp_angle_l	    lumbar_extension	      lumbar_bending	     lumbar_rotation	 ercspn_r/activation	 intobl_r/activation	 extobl_r/activation	    abd_r/activation	    add_r/activation	hamstrings_r/activation	bifemsh_r/activation	glut_max_r/activation	iliopsoas_r/activation	rect_fem_r/activation	  vasti_r/activation	gastroc_r/activation	 soleus_r/activation	tib_ant_r/activation	 ercspn_l/activation	 intobl_l/activation	 extobl_l/activation	    abd_l/activation	    add_l/activation	hamstrings_l/activation	bifemsh_l/activation	glut_max_l/activation	iliopsoas_l/activation	rect_fem_l/activation	  vasti_l/activation	gastroc_l/activation	 soleus_l/activation	tib_ant_l/activation	
          1.09854423	         -5.96803877	         -2.00765701	         11.79829225	          2.19708846	          0.95452606	         -0.00818782	         38.18333559	         -3.83514121	         -8.79247304	        -11.95197451	          4.66229811	          0.24970500	        -15.12368138	         -5.14819172	          1.33827048	        -15.95547003	          2.79478121	         45.70976399	        -13.04817876	          0.78712003	         -3.88327381	          0.08542216	          0.11442475	          0.00999999	          0.00999999	          0.17656339	          0.09139908	          0.25163370	          0.23899809	          0.11556044	          0.01531236	          0.00999999	          0.07381771	          0.01139660	          0.40145743	          0.08209678	          0.00999999	          0.01183090	          0.03740994	          0.21031615	          0.05292824	          0.48776541	          0.02072820	          0.00999999	          0.10883223	          0.05448053	          0.30910618	          0.22928254	          0.01230490	
          1.10952967	         -5.88133746	         -2.10111008	         11.89466197	          2.22608259	          0.95322752	         -0.00698750	         38.21984821	         -3.73358274	         -9.28662360	        -15.17373376	          4.24239529	          0.18651669	        -16.82783306	         -5.63953863	          0.58058402	        -15.42765476	         -0.34123594	         46.71567390	        -12.40006268	          0.92422727	         -4.25245298	          0.07220254	          0.09671680	          0.00999999	          0.13737179	          0.23716786	          0.08529996	          0.21269181	          0.46075749	          0.09767674	          0.01294268	          0.00999999	          0.06239396	          0.00999999	          0.46553920	          0.08996882	          0.00999999	          0.00999999	          0.03162052	          0.20150657	          0.04473726	          0.42738074	          0.01752038	          0.42852618	          0.09198976	          0.04604933	          0.26127006	          0.19379963	          0.01040064	
          1.12051511	         -5.79060016	         -2.16296127	         11.93162758	          2.25479142	          0.95217320	         -0.00569525	         38.23444936	         -3.60750522	         -9.55990058	        -18.33911864	          3.83605588	          0.15140131	        -17.95583120	         -6.06354499	         -0.22756084	        -15.95810575	         -3.12022608	         46.68256443	        -11.79180039	          1.02824542	         -4.57982814	          0.07515575	          0.08174927	          0.00999999	          0.20388879	          0.28698736	          0.07209925	          0.17977642	          0.59661676	          0.08256065	          0.01093972	          0.00999999	          0.05273810	          0.00999999	          0.49668937	          0.15357857	          0.00999999	          0.00999999	          0.02672704	          0.19063609	          0.03781389	          0.36124089	          0.01480899	          0.67011886	          0.07775377	          0.03892291	          0.22083688	          0.16380792	          0.00999999	
          1.13150056	         -5.69054767	         -2.20274611	         11.91595752	          2.28293867	          0.95158847	         -0.00428228	         38.36674763	         -3.44447313	         -9.59278859	        -21.68798007	          3.64908280	          0.08795248	        -18.39154024	         -6.45226682	         -1.05896010	        -17.67007878	         -5.69943982	         45.86120477	        -11.25922652	          1.11219347	         -4.86346182	          0.16052242	          0.06909806	          0.00999999	          0.25401229	          0.32659199	          0.06094144	          0.15195489	          0.70280056	          0.06978387	          0.00999999	          0.03080912	          0.04457655	          0.06734110	          0.49334584	          0.20273406	          0.00999999	          0.00999999	          0.02259087	          0.23442194	          0.03196195	          0.30533660	          0.01251721	          0.80957734	          0.06572088	          0.03289934	          0.18666099	          0.13845762	          0.00999999	
          1.14248600	         -5.57794335	         -2.21763221	         11.85120801	          2.31050089	          0.95154699	         -0.00278194	         38.57608983	         -3.23702000	         -9.41102214	        -25.19886297	          3.92248408	          0.03922076	        -18.12734635	         -6.82807594	         -1.91492664	        -20.51081292	         -8.26264715	         44.34331416	        -10.80144744	          1.17713172	         -5.09921148	          0.16836044	          0.05840470	          0.00999999	          0.28870773	          0.33518241	          0.05151037	          0.12843892	          0.59403776	          0.05898438	          0.00999999	          0.11017534	          0.03767805	          0.07243887	          0.48566221	          0.25790948	          0.00999999	          0.00999999	          0.01909479	          0.24275983	          0.02701564	          0.25808385	          0.01058009	          0.70182406	          0.05555016	          0.02780796	          0.15777403	          0.11703044	          0.00999999	
